<?xml version="1.0" encoding="UTF-8"?>
<svg width="32px" height="32px" viewBox="0 0 32 32" version="1.1" xmlns="http://www.w3.org/2000/svg" xmlns:xlink="http://www.w3.org/1999/xlink">
    <title>ads_creative_studio_32dp</title>
    <g id="Page-1" stroke="none" stroke-width="1" fill="none" fill-rule="evenodd">
        <g id="ads_creative_studio_32dp">
            <rect id="Rectangle" x="0" y="0" width="32" height="32"></rect>
            <g id="Group" transform="translate(1.333333, 1.333333)" fill-rule="nonzero">
                <path d="M22,10.8333333 L3.44333333,10.8333333 C1.54166667,10.8333333 0,9.26666667 0,7.33333333 L0,7.33333333 C0,5.4 1.54166667,3.83333333 3.44333333,3.83333333 L22,3.83333333 L22,10.8333333 Z" id="Path" fill="#24C1E0"></path>
                <path d="M3.83333333,22 C3.83333333,20.0666667 5.335,18.5 7.18666667,18.5 L25.9816667,18.5 C27.8333333,18.5 29.335,20.0666667 29.335,22 L29.335,22 C29.335,23.9333333 27.8333333,25.5 25.9816667,25.5 L7.18666667,25.5 C5.335,25.5 3.83333333,23.9333333 3.83333333,22 Z" id="Path" fill="#129EAF"></path>
                <path d="M25.5,25.8333333 L25.5,7.345 C25.5,5.435 23.9333333,3.88666667 22,3.88666667 L22,3.88666667 C20.0666667,3.88666667 18.5,5.435 18.5,7.345 L18.5,25.8333333 L25.5,25.8333333 Z" id="Path" fill="#24C1E0"></path>
                <path d="M10.8333333,22 L10.8333333,3.58166667 C10.8333333,1.60333333 9.26666667,0 7.33333333,0 L7.33333333,0 C5.4,0 3.83333333,1.60333333 3.83333333,3.58166667 L3.83333333,22 L10.8333333,22 Z" id="Path" fill="#129EAF"></path>
                <circle id="Oval" fill="#129EAF" cx="22" cy="25.8333333" r="3.5"></circle>
            </g>
        </g>
    </g>
</svg>